<mxfile host="app.diagrams.net" modified="2023-04-18T00:59:54.673Z" agent="Mozilla/5.0 (Windows NT 10.0; Win64; x64; rv:109.0) Gecko/20100101 Firefox/111.0" etag="8RrYqUObC4BicYZW7Zln" version="21.1.8" type="github">
  <diagram name="Page-1" id="49x5V9DjOmQdvuMgqxRH">
    <mxGraphModel dx="1562" dy="785" grid="1" gridSize="10" guides="1" tooltips="1" connect="1" arrows="1" fold="1" page="1" pageScale="1" pageWidth="850" pageHeight="1100" math="0" shadow="0">
      <root>
        <mxCell id="0" />
        <mxCell id="1" parent="0" />
        <mxCell id="-uOuLKXXCzICFa94fSoi-2" value="To" style="swimlane;" vertex="1" parent="1">
          <mxGeometry x="40" y="80" width="870" height="720" as="geometry" />
        </mxCell>
        <mxCell id="-uOuLKXXCzICFa94fSoi-3" value="" style="rounded=0;whiteSpace=wrap;html=1;" vertex="1" parent="-uOuLKXXCzICFa94fSoi-2">
          <mxGeometry width="870" height="40" as="geometry" />
        </mxCell>
        <mxCell id="-uOuLKXXCzICFa94fSoi-7" value="Profile" style="html=1;whiteSpace=wrap;strokeColor=none;fillColor=#0079D6;labelPosition=center;verticalLabelPosition=middle;verticalAlign=top;align=center;fontSize=12;outlineConnect=0;spacingTop=-6;fontColor=#FFFFFF;sketch=0;shape=mxgraph.sitemap.profile;" vertex="1" parent="-uOuLKXXCzICFa94fSoi-2">
          <mxGeometry x="40" y="90" width="240" height="240" as="geometry" />
        </mxCell>
        <mxCell id="-uOuLKXXCzICFa94fSoi-11" value="Text" style="text;html=1;strokeColor=none;fillColor=none;align=center;verticalAlign=middle;whiteSpace=wrap;rounded=0;" vertex="1" parent="-uOuLKXXCzICFa94fSoi-2">
          <mxGeometry x="355" y="240" width="60" height="30" as="geometry" />
        </mxCell>
        <mxCell id="-uOuLKXXCzICFa94fSoi-12" value="Bio" style="whiteSpace=wrap;html=1;fontSize=23;" vertex="1" parent="-uOuLKXXCzICFa94fSoi-2">
          <mxGeometry x="300" y="190" width="200" height="100" as="geometry" />
        </mxCell>
        <mxCell id="-uOuLKXXCzICFa94fSoi-13" value="Name" style="text;html=1;strokeColor=none;fillColor=none;align=center;verticalAlign=middle;whiteSpace=wrap;rounded=0;fontSize=22;" vertex="1" parent="-uOuLKXXCzICFa94fSoi-2">
          <mxGeometry x="167.5" y="90" width="465" height="80" as="geometry" />
        </mxCell>
        <mxCell id="-uOuLKXXCzICFa94fSoi-14" value="" style="rounded=0;whiteSpace=wrap;html=1;" vertex="1" parent="-uOuLKXXCzICFa94fSoi-2">
          <mxGeometry x="40" y="350" width="800" height="270" as="geometry" />
        </mxCell>
        <mxCell id="-uOuLKXXCzICFa94fSoi-15" value="Completed Tasks" style="text;html=1;strokeColor=none;fillColor=none;align=center;verticalAlign=middle;whiteSpace=wrap;rounded=0;fontSize=20;" vertex="1" parent="-uOuLKXXCzICFa94fSoi-2">
          <mxGeometry x="450" y="360" width="370" height="90" as="geometry" />
        </mxCell>
        <mxCell id="-uOuLKXXCzICFa94fSoi-16" value="" style="endArrow=none;html=1;rounded=0;entryX=0.5;entryY=0;entryDx=0;entryDy=0;exitX=0.5;exitY=1;exitDx=0;exitDy=0;" edge="1" parent="-uOuLKXXCzICFa94fSoi-2" source="-uOuLKXXCzICFa94fSoi-14" target="-uOuLKXXCzICFa94fSoi-14">
          <mxGeometry width="50" height="50" relative="1" as="geometry">
            <mxPoint x="430" y="660" as="sourcePoint" />
            <mxPoint x="410" y="330" as="targetPoint" />
          </mxGeometry>
        </mxCell>
        <mxCell id="-uOuLKXXCzICFa94fSoi-18" value="To-Do" style="text;html=1;strokeColor=none;fillColor=none;align=center;verticalAlign=middle;whiteSpace=wrap;rounded=0;fontSize=20;" vertex="1" parent="-uOuLKXXCzICFa94fSoi-2">
          <mxGeometry x="60" y="370" width="370" height="90" as="geometry" />
        </mxCell>
        <mxCell id="-uOuLKXXCzICFa94fSoi-19" value="&lt;ul style=&quot;font-size: 22px;&quot;&gt;&lt;li style=&quot;font-size: 22px;&quot;&gt;Value 1&lt;/li&gt;&lt;li style=&quot;font-size: 22px;&quot;&gt;Value 2&lt;/li&gt;&lt;li style=&quot;font-size: 22px;&quot;&gt;Value 3&lt;/li&gt;&lt;/ul&gt;" style="text;strokeColor=none;fillColor=none;html=1;whiteSpace=wrap;verticalAlign=middle;overflow=hidden;fontSize=22;" vertex="1" parent="-uOuLKXXCzICFa94fSoi-2">
          <mxGeometry x="70" y="430" width="220" height="160" as="geometry" />
        </mxCell>
        <mxCell id="-uOuLKXXCzICFa94fSoi-20" value="&lt;ul style=&quot;font-size: 22px;&quot;&gt;&lt;li style=&quot;font-size: 22px;&quot;&gt;Value 1&lt;/li&gt;&lt;li style=&quot;font-size: 22px;&quot;&gt;Value 2&lt;/li&gt;&lt;li style=&quot;font-size: 22px;&quot;&gt;Value 3&lt;/li&gt;&lt;/ul&gt;" style="text;strokeColor=none;fillColor=none;html=1;whiteSpace=wrap;verticalAlign=middle;overflow=hidden;fontSize=22;" vertex="1" parent="-uOuLKXXCzICFa94fSoi-2">
          <mxGeometry x="462.5" y="430" width="220" height="160" as="geometry" />
        </mxCell>
        <mxCell id="-uOuLKXXCzICFa94fSoi-21" value="" style="rounded=0;whiteSpace=wrap;html=1;fillColor=none;" vertex="1" parent="-uOuLKXXCzICFa94fSoi-2">
          <mxGeometry x="300" y="90" width="540" height="80" as="geometry" />
        </mxCell>
      </root>
    </mxGraphModel>
  </diagram>
</mxfile>
